# xmcd
#
# Track frame offsets: 
#        150
#        15136
#        43296
#        60341
#        80085
#        92540
#        106975
#        125582
#        142499
#        157238
#        170058
#        185441
#        203046
#        218820
#        242251
#
# Disc length: 3519 seconds
#
# Revision: 1
# Processed by: cddbd v1.5.2PL0 Copyright (c) Steve Scherf et al.
# Submitted via: ExactAudioCopy v1.3
#
DISCID=d10dbd0f
DTITLE=CDS制作 - TEST-CD-22A 【休闲民乐吧】
DYEAR=2014
DGENRE=Acid
TTITLE0=刘阳何(古筝)
TTITLE1=二泉映月(二胡)
TTITLE2=乌苏里船歌(古筝)
TTITLE3=蝴碟泉边(葫芦丝)
TTITLE4=小白杨(琵琶)
TTITLE5=绣金匾(古筝)
TTITLE6=北风吹(二胡)
TTITLE7=红梅赞歌(琵琶)
TTITLE8=苗岭的早晨(笛子)
TTITLE9=小河淌水(葫芦丝)
TTITLE10=渔家姑娘在海边(二胡)
TTITLE11=婚誓(葫芦丝)
TTITLE12=洗衣歌(笛子)
TTITLE13=彩云追月(古筝)
TTITLE14=月光下的凤尾竹(葫芦丝)
EXTD=
EXTT0=
EXTT1=
EXTT2=
EXTT3=
EXTT4=
EXTT5=
EXTT6=
EXTT7=
EXTT8=
EXTT9=
EXTT10=
EXTT11=
EXTT12=
EXTT13=
EXTT14=
PLAYORDER=
